<mxfile host="app.diagrams.net" agent="Mozilla/5.0 (Windows NT 10.0; Win64; x64) AppleWebKit/537.36 (KHTML, like Gecko) Chrome/128.0.0.0 Safari/537.36" version="24.7.8" pages="2">
  <diagram name=" General system" id="b520641d-4fe3-3701-9064-5fc419738815">
    <mxGraphModel dx="1278" dy="579" grid="1" gridSize="10" guides="1" tooltips="1" connect="1" arrows="1" fold="1" page="1" pageScale="1" pageWidth="1100" pageHeight="850" background="none" math="0" shadow="0">
      <root>
        <mxCell id="0" />
        <mxCell id="1" parent="0" />
        <mxCell id="VAKNueDWWHDVUzqKKESD-18" value="enable&lt;br&gt;and&lt;br&gt;disable" style="edgeStyle=orthogonalEdgeStyle;rounded=0;orthogonalLoop=1;jettySize=auto;html=1;exitX=1;exitY=0.25;exitDx=0;exitDy=0;entryX=0;entryY=0.25;entryDx=0;entryDy=0;" parent="1" source="VAKNueDWWHDVUzqKKESD-1" target="VAKNueDWWHDVUzqKKESD-4" edge="1">
          <mxGeometry relative="1" as="geometry" />
        </mxCell>
        <mxCell id="VAKNueDWWHDVUzqKKESD-23" value="set colors&lt;br&gt;from strip" style="edgeStyle=orthogonalEdgeStyle;rounded=0;orthogonalLoop=1;jettySize=auto;html=1;exitX=0.5;exitY=1;exitDx=0;exitDy=0;entryX=0.5;entryY=0;entryDx=0;entryDy=0;" parent="1" source="VAKNueDWWHDVUzqKKESD-1" target="VAKNueDWWHDVUzqKKESD-8" edge="1">
          <mxGeometry relative="1" as="geometry" />
        </mxCell>
        <mxCell id="VAKNueDWWHDVUzqKKESD-1" value="Color Modes&lt;br&gt;&lt;br&gt;- Change colors and color music modes" style="rounded=0;whiteSpace=wrap;html=1;fillColor=#e51400;strokeColor=#B20000;fontStyle=1;fontColor=#ffffff;" parent="1" vertex="1">
          <mxGeometry x="400" y="360" width="240" height="120" as="geometry" />
        </mxCell>
        <mxCell id="VAKNueDWWHDVUzqKKESD-34" value="send&lt;br&gt;audio, sample rate, *&lt;br&gt;callbacks" style="edgeStyle=orthogonalEdgeStyle;rounded=0;orthogonalLoop=1;jettySize=auto;html=1;exitX=0.75;exitY=1;exitDx=0;exitDy=0;entryX=0.75;entryY=0;entryDx=0;entryDy=0;fontSize=12;" parent="1" source="VAKNueDWWHDVUzqKKESD-2" target="VAKNueDWWHDVUzqKKESD-4" edge="1">
          <mxGeometry relative="1" as="geometry" />
        </mxCell>
        <mxCell id="VAKNueDWWHDVUzqKKESD-43" value="send&lt;br&gt;pause, *&lt;br&gt;callback" style="edgeStyle=orthogonalEdgeStyle;rounded=0;orthogonalLoop=1;jettySize=auto;html=1;exitX=0;exitY=1;exitDx=0;exitDy=0;entryX=1;entryY=0;entryDx=0;entryDy=0;fontSize=12;" parent="1" source="VAKNueDWWHDVUzqKKESD-2" target="VAKNueDWWHDVUzqKKESD-1" edge="1">
          <mxGeometry relative="1" as="geometry" />
        </mxCell>
        <mxCell id="VAKNueDWWHDVUzqKKESD-2" value="BluetoothA2DPSink Library&lt;br&gt;&lt;br&gt;- Audio recive&lt;br&gt;-&amp;nbsp;Audio playback&lt;br&gt;-&amp;nbsp;Receiving events (pause, next track,...)&lt;br&gt;- S&lt;span style=&quot;background-color: initial;&quot;&gt;ending event data from callbacks&lt;/span&gt;" style="rounded=0;whiteSpace=wrap;html=1;fillColor=#fff2cc;strokeColor=#d6b656;" parent="1" vertex="1">
          <mxGeometry x="720" y="160" width="240" height="120" as="geometry" />
        </mxCell>
        <mxCell id="VAKNueDWWHDVUzqKKESD-19" value="colors data&lt;br&gt;callback" style="edgeStyle=orthogonalEdgeStyle;rounded=0;orthogonalLoop=1;jettySize=auto;html=1;exitX=0;exitY=0.75;exitDx=0;exitDy=0;entryX=1;entryY=0.75;entryDx=0;entryDy=0;fillColor=#FFBC05;strokeColor=#000000;" parent="1" source="VAKNueDWWHDVUzqKKESD-4" target="VAKNueDWWHDVUzqKKESD-1" edge="1">
          <mxGeometry relative="1" as="geometry" />
        </mxCell>
        <mxCell id="VAKNueDWWHDVUzqKKESD-33" value="setup callbacks" style="edgeStyle=orthogonalEdgeStyle;rounded=0;orthogonalLoop=1;jettySize=auto;html=1;exitX=0.25;exitY=0;exitDx=0;exitDy=0;entryX=0.25;entryY=1;entryDx=0;entryDy=0;fontSize=12;" parent="1" source="VAKNueDWWHDVUzqKKESD-4" target="VAKNueDWWHDVUzqKKESD-2" edge="1">
          <mxGeometry relative="1" as="geometry" />
        </mxCell>
        <mxCell id="F1Bza5wfs1UBE8PXM8rv-1" value="set &lt;br&gt;_fft&lt;br&gt;config" style="edgeStyle=orthogonalEdgeStyle;rounded=0;orthogonalLoop=1;jettySize=auto;html=1;exitX=0.5;exitY=1;exitDx=0;exitDy=0;entryX=0.5;entryY=0;entryDx=0;entryDy=0;" edge="1" parent="1" source="VAKNueDWWHDVUzqKKESD-4" target="VAKNueDWWHDVUzqKKESD-6">
          <mxGeometry relative="1" as="geometry" />
        </mxCell>
        <mxCell id="F1Bza5wfs1UBE8PXM8rv-2" value="&lt;span style=&quot;color: rgb(0, 0, 0); font-family: Helvetica; font-size: 12px; font-style: normal; font-variant-ligatures: normal; font-variant-caps: normal; font-weight: 400; letter-spacing: normal; orphans: 2; text-align: center; text-indent: 0px; text-transform: none; widows: 2; word-spacing: 0px; -webkit-text-stroke-width: 0px; background-color: rgb(255, 255, 255); text-decoration-thickness: initial; text-decoration-style: initial; text-decoration-color: initial; float: none; display: inline !important;&quot;&gt;transfer&lt;/span&gt;&lt;br style=&quot;color: rgb(0, 0, 0); font-family: Helvetica; font-size: 12px; font-style: normal; font-variant-ligatures: normal; font-variant-caps: normal; font-weight: 400; letter-spacing: normal; orphans: 2; text-align: center; text-indent: 0px; text-transform: none; widows: 2; word-spacing: 0px; -webkit-text-stroke-width: 0px; text-decoration-thickness: initial; text-decoration-style: initial; text-decoration-color: initial;&quot;&gt;&lt;span style=&quot;color: rgb(0, 0, 0); font-family: Helvetica; font-size: 12px; font-style: normal; font-variant-ligatures: normal; font-variant-caps: normal; font-weight: 400; letter-spacing: normal; orphans: 2; text-align: center; text-indent: 0px; text-transform: none; widows: 2; word-spacing: 0px; -webkit-text-stroke-width: 0px; background-color: rgb(255, 255, 255); text-decoration-thickness: initial; text-decoration-style: initial; text-decoration-color: initial; float: none; display: inline !important;&quot;&gt;callback data&lt;/span&gt;" style="edgeStyle=orthogonalEdgeStyle;rounded=0;orthogonalLoop=1;jettySize=auto;html=1;exitX=0.75;exitY=1;exitDx=0;exitDy=0;entryX=0.75;entryY=0;entryDx=0;entryDy=0;" edge="1" parent="1" source="VAKNueDWWHDVUzqKKESD-4" target="VAKNueDWWHDVUzqKKESD-6">
          <mxGeometry relative="1" as="geometry" />
        </mxCell>
        <mxCell id="VAKNueDWWHDVUzqKKESD-4" value="Color Music&lt;br&gt;&lt;br&gt;- Enable and disable calculating&lt;br&gt;- Calculte freq colors from audio" style="rounded=0;whiteSpace=wrap;html=1;fillColor=#1ba1e2;strokeColor=#006EAF;fontStyle=1;fontColor=#ffffff;" parent="1" vertex="1">
          <mxGeometry x="720" y="360" width="240" height="120" as="geometry" />
        </mxCell>
        <mxCell id="VAKNueDWWHDVUzqKKESD-38" value="notify ready&lt;br&gt;amplitudes" style="edgeStyle=orthogonalEdgeStyle;rounded=0;orthogonalLoop=1;jettySize=auto;html=1;exitX=0.25;exitY=0;exitDx=0;exitDy=0;entryX=0.25;entryY=1;entryDx=0;entryDy=0;fontSize=12;" parent="1" source="VAKNueDWWHDVUzqKKESD-6" target="VAKNueDWWHDVUzqKKESD-4" edge="1">
          <mxGeometry relative="1" as="geometry" />
        </mxCell>
        <mxCell id="VAKNueDWWHDVUzqKKESD-6" value="FFTCore&lt;br&gt;&lt;br&gt;- Transform samples to amplitudes&lt;br&gt;- Manage windows, amplitudes types&lt;br&gt;- Generating windows and bark scale&lt;br&gt;- Calculate task (thread)" style="rounded=0;whiteSpace=wrap;html=1;fillColor=#1ba1e2;strokeColor=#006EAF;fontStyle=1;fontColor=#ffffff;" parent="1" vertex="1">
          <mxGeometry x="720" y="560" width="240" height="120" as="geometry" />
        </mxCell>
        <mxCell id="VAKNueDWWHDVUzqKKESD-45" value="set colors&lt;br&gt;from leds,&lt;br&gt;bright" style="edgeStyle=orthogonalEdgeStyle;rounded=0;orthogonalLoop=1;jettySize=auto;html=1;exitX=0;exitY=0.5;exitDx=0;exitDy=0;entryX=1;entryY=0.5;entryDx=0;entryDy=0;fontSize=12;" parent="1" source="VAKNueDWWHDVUzqKKESD-8" target="VAKNueDWWHDVUzqKKESD-9" edge="1">
          <mxGeometry relative="1" as="geometry" />
        </mxCell>
        <mxCell id="VAKNueDWWHDVUzqKKESD-8" value="Led Strip&lt;br&gt;&lt;br&gt;- Strip segments&lt;br&gt;- Brightness control, activity status&lt;br&gt;- Show task (thread)" style="rounded=0;whiteSpace=wrap;html=1;fillColor=#6a00ff;strokeColor=#3700CC;fontStyle=1;fontColor=#ffffff;" parent="1" vertex="1">
          <mxGeometry x="400" y="560" width="240" height="120" as="geometry" />
        </mxCell>
        <mxCell id="VAKNueDWWHDVUzqKKESD-9" value="FastLED Library&lt;br&gt;&lt;br&gt;- Show leds values&lt;br&gt;- Color correction&lt;br&gt;- CRT gamma" style="rounded=0;whiteSpace=wrap;html=1;fillColor=#fff2cc;strokeColor=#d6b656;" parent="1" vertex="1">
          <mxGeometry x="80" y="560" width="240" height="120" as="geometry" />
        </mxCell>
        <mxCell id="VAKNueDWWHDVUzqKKESD-16" value="base&lt;br&gt;configure" style="edgeStyle=orthogonalEdgeStyle;rounded=0;orthogonalLoop=1;jettySize=auto;html=1;exitX=1;exitY=0.5;exitDx=0;exitDy=0;entryX=0;entryY=0.5;entryDx=0;entryDy=0;" parent="1" source="VAKNueDWWHDVUzqKKESD-15" target="VAKNueDWWHDVUzqKKESD-2" edge="1">
          <mxGeometry relative="1" as="geometry" />
        </mxCell>
        <mxCell id="VAKNueDWWHDVUzqKKESD-17" value="program control transfer" style="edgeStyle=orthogonalEdgeStyle;rounded=0;orthogonalLoop=1;jettySize=auto;html=1;exitX=0.5;exitY=1;exitDx=0;exitDy=0;entryX=0.5;entryY=0;entryDx=0;entryDy=0;" parent="1" source="VAKNueDWWHDVUzqKKESD-15" target="VAKNueDWWHDVUzqKKESD-1" edge="1">
          <mxGeometry relative="1" as="geometry" />
        </mxCell>
        <mxCell id="VAKNueDWWHDVUzqKKESD-26" value="confugure" style="edgeStyle=orthogonalEdgeStyle;rounded=0;orthogonalLoop=1;jettySize=auto;html=1;exitX=0;exitY=0.5;exitDx=0;exitDy=0;entryX=1;entryY=0.5;entryDx=0;entryDy=0;" parent="1" source="VAKNueDWWHDVUzqKKESD-15" target="VAKNueDWWHDVUzqKKESD-25" edge="1">
          <mxGeometry relative="1" as="geometry" />
        </mxCell>
        <mxCell id="VAKNueDWWHDVUzqKKESD-15" value="&lt;div style=&quot;&quot;&gt;&lt;font style=&quot;font-size: 12px;&quot;&gt;Main Launch&lt;br&gt;&lt;br&gt;- Configure&lt;/font&gt;&lt;/div&gt;&lt;div style=&quot;&quot;&gt;&lt;font style=&quot;font-size: 12px;&quot;&gt;- Includes&lt;br&gt;- Initialization&lt;/font&gt;&lt;/div&gt;&lt;div style=&quot;&quot;&gt;&lt;font style=&quot;font-size: 12px;&quot;&gt;- Setup&lt;/font&gt;&lt;/div&gt;&lt;div style=&quot;&quot;&gt;&lt;font style=&quot;font-size: 12px;&quot;&gt;- Start&lt;/font&gt;&lt;/div&gt;" style="rounded=0;whiteSpace=wrap;html=1;fillColor=#60a917;strokeColor=#2D7600;fontStyle=1;fontColor=#ffffff;" parent="1" vertex="1">
          <mxGeometry x="400" y="160" width="240" height="120" as="geometry" />
        </mxCell>
        <mxCell id="VAKNueDWWHDVUzqKKESD-29" value="change&lt;br&gt;color&lt;br&gt;mode" style="edgeStyle=orthogonalEdgeStyle;rounded=0;orthogonalLoop=1;jettySize=auto;html=1;exitX=1;exitY=0.75;exitDx=0;exitDy=0;entryX=0;entryY=0.25;entryDx=0;entryDy=0;" parent="1" source="VAKNueDWWHDVUzqKKESD-25" target="VAKNueDWWHDVUzqKKESD-1" edge="1">
          <mxGeometry x="0.1818" relative="1" as="geometry">
            <Array as="points">
              <mxPoint x="380" y="250" />
              <mxPoint x="380" y="390" />
            </Array>
            <mxPoint as="offset" />
          </mxGeometry>
        </mxCell>
        <mxCell id="VAKNueDWWHDVUzqKKESD-30" value="volume control" style="edgeStyle=orthogonalEdgeStyle;rounded=0;orthogonalLoop=1;jettySize=auto;html=1;exitX=0.75;exitY=0;exitDx=0;exitDy=0;entryX=0.25;entryY=0;entryDx=0;entryDy=0;" parent="1" source="VAKNueDWWHDVUzqKKESD-25" target="VAKNueDWWHDVUzqKKESD-2" edge="1">
          <mxGeometry relative="1" as="geometry">
            <Array as="points">
              <mxPoint x="260" y="140" />
              <mxPoint x="780" y="140" />
            </Array>
          </mxGeometry>
        </mxCell>
        <mxCell id="VAKNueDWWHDVUzqKKESD-31" value="color calculation and _fft configuration management" style="edgeStyle=orthogonalEdgeStyle;rounded=0;orthogonalLoop=1;jettySize=auto;html=1;exitX=0.5;exitY=0;exitDx=0;exitDy=0;entryX=1;entryY=0.5;entryDx=0;entryDy=0;" parent="1" source="VAKNueDWWHDVUzqKKESD-25" target="VAKNueDWWHDVUzqKKESD-4" edge="1">
          <mxGeometry relative="1" as="geometry">
            <Array as="points">
              <mxPoint x="200" y="120" />
              <mxPoint x="980" y="120" />
              <mxPoint x="980" y="420" />
            </Array>
          </mxGeometry>
        </mxCell>
        <mxCell id="VAKNueDWWHDVUzqKKESD-46" value="change&lt;br&gt;brightness" style="edgeStyle=orthogonalEdgeStyle;rounded=0;orthogonalLoop=1;jettySize=auto;html=1;exitX=1;exitY=0.75;exitDx=0;exitDy=0;entryX=0;entryY=0.25;entryDx=0;entryDy=0;fontSize=12;" parent="1" source="VAKNueDWWHDVUzqKKESD-25" target="VAKNueDWWHDVUzqKKESD-8" edge="1">
          <mxGeometry relative="1" as="geometry">
            <Array as="points">
              <mxPoint x="360" y="250" />
              <mxPoint x="360" y="590" />
            </Array>
          </mxGeometry>
        </mxCell>
        <mxCell id="VAKNueDWWHDVUzqKKESD-25" value="RemoteControl&lt;br&gt;&lt;br&gt;- IR remote&lt;br&gt;- Encoder&lt;br&gt;- Serial&lt;br&gt;- Another protocols" style="rounded=0;whiteSpace=wrap;html=1;fontStyle=1;fillColor=#1ba1e2;fontColor=#ffffff;strokeColor=#006EAF;" parent="1" vertex="1">
          <mxGeometry x="80" y="160" width="240" height="120" as="geometry" />
        </mxCell>
      </root>
    </mxGraphModel>
  </diagram>
  <diagram id="g9RnA_tGBSa4dhnIFide" name="Страница — 2">
    <mxGraphModel dx="1050" dy="565" grid="1" gridSize="10" guides="1" tooltips="1" connect="1" arrows="1" fold="1" page="1" pageScale="1" pageWidth="827" pageHeight="1169" math="0" shadow="0">
      <root>
        <mxCell id="0" />
        <mxCell id="1" parent="0" />
        <mxCell id="ZkRPtXCnaLgjOJ9rL5qX-1" value="LED&lt;br&gt;&lt;br&gt;CONTROLLER" style="rounded=0;whiteSpace=wrap;html=1;" parent="1" vertex="1">
          <mxGeometry x="120" y="200" width="120" height="120" as="geometry" />
        </mxCell>
        <mxCell id="ZkRPtXCnaLgjOJ9rL5qX-3" style="edgeStyle=orthogonalEdgeStyle;rounded=0;orthogonalLoop=1;jettySize=auto;html=1;exitX=0.5;exitY=0;exitDx=0;exitDy=0;entryX=0.5;entryY=1;entryDx=0;entryDy=0;" parent="1" source="ZkRPtXCnaLgjOJ9rL5qX-2" target="ZkRPtXCnaLgjOJ9rL5qX-1" edge="1">
          <mxGeometry relative="1" as="geometry" />
        </mxCell>
        <mxCell id="ZkRPtXCnaLgjOJ9rL5qX-2" value="COLOR MODES&lt;br&gt;&lt;br&gt;CONTROLLER" style="rounded=0;whiteSpace=wrap;html=1;" parent="1" vertex="1">
          <mxGeometry x="120" y="360" width="120" height="120" as="geometry" />
        </mxCell>
        <mxCell id="RCLaWuPObkQKIedFzOm_-1" value="AUDIO&lt;br&gt;&lt;br&gt;RECEIVER" style="rounded=0;whiteSpace=wrap;html=1;" vertex="1" parent="1">
          <mxGeometry x="480" y="200" width="120" height="120" as="geometry" />
        </mxCell>
        <mxCell id="RCLaWuPObkQKIedFzOm_-3" style="edgeStyle=orthogonalEdgeStyle;rounded=0;orthogonalLoop=1;jettySize=auto;html=1;exitX=0.5;exitY=0;exitDx=0;exitDy=0;entryX=0.5;entryY=1;entryDx=0;entryDy=0;" edge="1" parent="1" source="RCLaWuPObkQKIedFzOm_-2" target="RCLaWuPObkQKIedFzOm_-1">
          <mxGeometry relative="1" as="geometry" />
        </mxCell>
        <mxCell id="RCLaWuPObkQKIedFzOm_-2" value="AUDIO&lt;br&gt;&lt;br&gt;ANALYZER" style="rounded=0;whiteSpace=wrap;html=1;" vertex="1" parent="1">
          <mxGeometry x="480" y="360" width="120" height="120" as="geometry" />
        </mxCell>
      </root>
    </mxGraphModel>
  </diagram>
</mxfile>
